<svg xmlns:dc="http://purl.org/dc/elements/1.1/" xmlns:cc="http://creativecommons.org/ns#" xmlns:rdf="http://www.w3.org/1999/02/22-rdf-syntax-ns#" xmlns:svg="http://www.w3.org/2000/svg" xmlns="http://www.w3.org/2000/svg" xml:space="preserve" id="svg1402" version="1.1" viewBox="-0.03 -0.02 66.32 68.02"><metadata id="metadata1408"><rdf:RDF><cc:Work rdf:about=""><dc:format>image/svg+xml</dc:format><dc:type rdf:resource="http://purl.org/dc/dcmitype/StillImage"/><dc:title/></cc:Work></rdf:RDF></metadata><defs id="defs1406"><clipPath id="clipPath1422" clipPathUnits="userSpaceOnUse"><path id="path1420" d="M 0,62.262 H 211.245 V 0 H 0 Z"/></clipPath></defs><g transform="matrix(1.3333333,0,0,-1.3333333,-4.9119999,73.701998)" id="g1410"><g transform="translate(23.036,26.6115)" id="g1412"><path id="path1414" style="fill:#000000;fill-opacity:1;fill-rule:nonzero;stroke:none" d="M 0,0 -1.831,3.173 0,6.346 1.832,9.519 H 9.153 L 10.986,6.346 12.819,3.173 10.986,0 9.153,-3.173 H 1.832 Z m 15.619,17.478 h 7.323 l 3.661,-6.345 -3.661,-6.346 h -7.323 l -1.833,3.173 -1.833,3.173 1.833,3.173 z m -17.45,1.614 3.662,6.344 H 9.153 L 12.819,19.092 10.986,15.92 9.153,12.747 H 1.832 L 0,15.92 Z M -2.8,14.306 -0.969,11.133 -2.8,7.96 -4.632,4.787 h -7.322 l -3.665,6.346 3.665,6.345 h 7.322 z m -1.832,-25.439 h -7.322 l -3.665,6.346 3.665,6.346 h 7.322 L -2.8,-1.614 -0.969,-4.787 -2.8,-7.96 Z M 12.819,-12.747 9.153,-19.09 H 1.831 l -3.662,6.343 1.831,3.173 1.832,3.173 h 7.321 l 1.833,-3.173 z m 0.967,4.787 -1.833,3.173 1.833,3.173 1.833,3.173 h 7.323 l 3.661,-6.346 -3.661,-6.346 h -7.323 z m 16.55,19.093 -5.528,9.574 H 15.619 L 11.02,28.665 H -0.036 l -4.596,-7.958 h -9.188 l -5.532,-9.574 4.599,-7.96 -4.599,-7.96 5.532,-9.574 h 9.188 l 4.596,-7.957 H 11.02 l 4.599,7.957 h 9.189 l 5.528,9.574 -4.596,7.96 z"/></g></g></svg>

